M48
; DRILL file {KiCad 7.0.7} date Tue Sep 19 09:51:15 2023
; FORMAT={-:-/ absolute / inch / decimal}
; #@! TF.CreationDate,2023-09-19T09:51:15+02:00
; #@! TF.GenerationSoftware,Kicad,Pcbnew,7.0.7
; #@! TF.FileFunction,Plated,1,2,PTH
FMAT,2
INCH
; #@! TA.AperFunction,Plated,PTH,ComponentDrill
T1C0.0394
; #@! TA.AperFunction,Plated,PTH,ComponentDrill
T2C0.0512
%
G90
G05
T1
X4.72Y-3.16
X4.72Y-3.26
X4.82Y-3.16
X4.82Y-3.26
X4.915Y-2.95
X4.92Y-3.16
X4.92Y-3.26
X5.02Y-3.16
X5.02Y-3.26
X5.12Y-3.16
X5.12Y-3.26
X5.39Y-2.95
X5.565Y-2.95
X5.7Y-4.1776
X5.7Y-4.7776
X5.8Y-4.1776
X5.8Y-4.7776
X5.9Y-4.1776
X5.9Y-4.7776
X6.0Y-4.1776
X6.0Y-4.7776
X6.04Y-2.95
X6.1Y-4.1776
X6.1Y-4.7776
X6.2Y-4.1776
X6.2Y-4.7776
X6.215Y-2.95
X6.3Y-4.1776
X6.3Y-4.7776
X6.4Y-4.1776
X6.4Y-4.7776
X6.5Y-4.1776
X6.5Y-4.7776
X6.6Y-4.1776
X6.6Y-4.7776
X6.69Y-2.95
X6.7Y-4.1776
X6.7Y-4.7776
X6.8Y-4.1776
X6.8Y-4.7776
X6.865Y-2.95
X6.9Y-4.1776
X6.9Y-4.7776
X7.0Y-4.1776
X7.0Y-4.7776
X7.1Y-4.1776
X7.1Y-4.7776
X7.34Y-2.95
X7.515Y-2.95
X7.99Y-2.95
T2
X5.4276Y-3.2972
X5.4276Y-3.7776
X5.6638Y-3.8563
X5.9Y-3.2972
X5.9Y-3.7776
X6.1276Y-3.2972
X6.1276Y-3.7776
X6.3638Y-3.8563
X6.6Y-3.2972
X6.6Y-3.7776
X6.8276Y-3.2972
X6.8276Y-3.7776
X7.0638Y-3.8563
X7.3Y-3.2972
X7.3Y-3.7776
X7.5276Y-3.2972
X7.5276Y-3.7776
X7.5276Y-4.1776
X7.5276Y-4.6579
X7.7638Y-3.8563
X7.7638Y-4.7366
X8.0Y-3.2972
X8.0Y-3.7776
X8.0Y-4.1776
X8.0Y-4.6579
T0
M30
