%TF.GenerationSoftware,KiCad,Pcbnew,7.0.7*%
%TF.CreationDate,2023-09-19T13:24:35+02:00*%
%TF.ProjectId,PiFencePCB,50694665-6e63-4655-9043-422e6b696361,0.1*%
%TF.SameCoordinates,Original*%
%TF.FileFunction,Soldermask,Top*%
%TF.FilePolarity,Negative*%
%FSLAX46Y46*%
G04 Gerber Fmt 4.6, Leading zero omitted, Abs format (unit mm)*
G04 Created by KiCad (PCBNEW 7.0.7) date 2023-09-19 13:24:35*
%MOMM*%
%LPD*%
G01*
G04 APERTURE LIST*
%ADD10R,1.700000X1.700000*%
%ADD11O,1.700000X1.700000*%
%ADD12R,1.524000X1.524000*%
%ADD13C,2.000000*%
%ADD14R,3.300000X4.400000*%
%ADD15R,3.900000X6.200000*%
%ADD16C,3.000000*%
%ADD17R,1.600000X1.600000*%
%ADD18O,1.600000X1.600000*%
G04 APERTURE END LIST*
D10*
%TO.C,J7*%
X119888000Y-82804000D03*
D11*
X119888000Y-80264000D03*
X122428000Y-82804000D03*
X122428000Y-80264000D03*
X124968000Y-82804000D03*
X124968000Y-80264000D03*
X127508000Y-82804000D03*
X127508000Y-80264000D03*
X130048000Y-82804000D03*
X130048000Y-80264000D03*
%TD*%
D12*
%TO.C,J6*%
X190881000Y-74930000D03*
X202946000Y-74930000D03*
%TD*%
%TO.C,J5*%
X174371000Y-74930000D03*
X186436000Y-74930000D03*
%TD*%
%TO.C,J4*%
X157861000Y-74930000D03*
X169926000Y-74930000D03*
%TD*%
%TO.C,J3*%
X141351000Y-74930000D03*
X153416000Y-74930000D03*
%TD*%
%TO.C,J2*%
X124841000Y-74930000D03*
X136906000Y-74930000D03*
%TD*%
D13*
%TO.C,J1*%
X111760000Y-53350000D03*
D14*
X111060000Y-66150000D03*
D15*
X118210000Y-57150000D03*
X105310000Y-57150000D03*
%TD*%
D16*
%TO.C,K5*%
X197200000Y-120310000D03*
X191200000Y-106110000D03*
X203200000Y-106110000D03*
X203200000Y-118310000D03*
X191200000Y-118310000D03*
%TD*%
%TO.C,K4*%
X197200000Y-97950000D03*
X191200000Y-83750000D03*
X203200000Y-83750000D03*
X203200000Y-95950000D03*
X191200000Y-95950000D03*
%TD*%
%TO.C,K3*%
X179420000Y-97950000D03*
X173420000Y-83750000D03*
X185420000Y-83750000D03*
X185420000Y-95950000D03*
X173420000Y-95950000D03*
%TD*%
%TO.C,K2*%
X161640000Y-97950000D03*
X155640000Y-83750000D03*
X167640000Y-83750000D03*
X167640000Y-95950000D03*
X155640000Y-95950000D03*
%TD*%
%TO.C,K1*%
X143860000Y-97950000D03*
X137860000Y-83750000D03*
X149860000Y-83750000D03*
X149860000Y-95950000D03*
X137860000Y-95950000D03*
%TD*%
D17*
%TO.C,A1*%
X180340000Y-106110000D03*
D18*
X177800000Y-106110000D03*
X175260000Y-106110000D03*
X172720000Y-106110000D03*
X170180000Y-106110000D03*
X167640000Y-106110000D03*
X165100000Y-106110000D03*
X162560000Y-106110000D03*
X160020000Y-106110000D03*
X157480000Y-106110000D03*
X154940000Y-106110000D03*
X152400000Y-106110000D03*
X149860000Y-106110000D03*
X147320000Y-106110000D03*
X144780000Y-106110000D03*
X144780000Y-121350000D03*
X147320000Y-121350000D03*
X149860000Y-121350000D03*
X152400000Y-121350000D03*
X154940000Y-121350000D03*
X157480000Y-121350000D03*
X160020000Y-121350000D03*
X162560000Y-121350000D03*
X165100000Y-121350000D03*
X167640000Y-121350000D03*
X170180000Y-121350000D03*
X172720000Y-121350000D03*
X175260000Y-121350000D03*
X177800000Y-121350000D03*
X180340000Y-121350000D03*
%TD*%
M02*
