%TF.GenerationSoftware,KiCad,Pcbnew,7.0.7*%
%TF.CreationDate,2023-09-19T13:24:35+02:00*%
%TF.ProjectId,PiFencePCB,50694665-6e63-4655-9043-422e6b696361,0.1*%
%TF.SameCoordinates,Original*%
%TF.FileFunction,Legend,Top*%
%TF.FilePolarity,Positive*%
%FSLAX46Y46*%
G04 Gerber Fmt 4.6, Leading zero omitted, Abs format (unit mm)*
G04 Created by KiCad (PCBNEW 7.0.7) date 2023-09-19 13:24:35*
%MOMM*%
%LPD*%
G01*
G04 APERTURE LIST*
%ADD10C,0.150000*%
%ADD11C,0.100000*%
%ADD12C,0.120000*%
G04 APERTURE END LIST*
D10*
X154705160Y-131460295D02*
X154705160Y-126460295D01*
X154705160Y-126460295D02*
X156609922Y-126460295D01*
X156609922Y-126460295D02*
X157086112Y-126698390D01*
X157086112Y-126698390D02*
X157324207Y-126936485D01*
X157324207Y-126936485D02*
X157562303Y-127412676D01*
X157562303Y-127412676D02*
X157562303Y-128126961D01*
X157562303Y-128126961D02*
X157324207Y-128603152D01*
X157324207Y-128603152D02*
X157086112Y-128841247D01*
X157086112Y-128841247D02*
X156609922Y-129079342D01*
X156609922Y-129079342D02*
X154705160Y-129079342D01*
X159705160Y-131460295D02*
X159705160Y-128126961D01*
X159705160Y-126460295D02*
X159467064Y-126698390D01*
X159467064Y-126698390D02*
X159705160Y-126936485D01*
X159705160Y-126936485D02*
X159943255Y-126698390D01*
X159943255Y-126698390D02*
X159705160Y-126460295D01*
X159705160Y-126460295D02*
X159705160Y-126936485D01*
X167562302Y-128841247D02*
X165895636Y-128841247D01*
X165895636Y-131460295D02*
X165895636Y-126460295D01*
X165895636Y-126460295D02*
X168276588Y-126460295D01*
X172086112Y-131222200D02*
X171609921Y-131460295D01*
X171609921Y-131460295D02*
X170657540Y-131460295D01*
X170657540Y-131460295D02*
X170181350Y-131222200D01*
X170181350Y-131222200D02*
X169943254Y-130746009D01*
X169943254Y-130746009D02*
X169943254Y-128841247D01*
X169943254Y-128841247D02*
X170181350Y-128365057D01*
X170181350Y-128365057D02*
X170657540Y-128126961D01*
X170657540Y-128126961D02*
X171609921Y-128126961D01*
X171609921Y-128126961D02*
X172086112Y-128365057D01*
X172086112Y-128365057D02*
X172324207Y-128841247D01*
X172324207Y-128841247D02*
X172324207Y-129317438D01*
X172324207Y-129317438D02*
X169943254Y-129793628D01*
X174467064Y-128126961D02*
X174467064Y-131460295D01*
X174467064Y-128603152D02*
X174705159Y-128365057D01*
X174705159Y-128365057D02*
X175181349Y-128126961D01*
X175181349Y-128126961D02*
X175895635Y-128126961D01*
X175895635Y-128126961D02*
X176371826Y-128365057D01*
X176371826Y-128365057D02*
X176609921Y-128841247D01*
X176609921Y-128841247D02*
X176609921Y-131460295D01*
X181133731Y-131222200D02*
X180657540Y-131460295D01*
X180657540Y-131460295D02*
X179705159Y-131460295D01*
X179705159Y-131460295D02*
X179228969Y-131222200D01*
X179228969Y-131222200D02*
X178990874Y-130984104D01*
X178990874Y-130984104D02*
X178752778Y-130507914D01*
X178752778Y-130507914D02*
X178752778Y-129079342D01*
X178752778Y-129079342D02*
X178990874Y-128603152D01*
X178990874Y-128603152D02*
X179228969Y-128365057D01*
X179228969Y-128365057D02*
X179705159Y-128126961D01*
X179705159Y-128126961D02*
X180657540Y-128126961D01*
X180657540Y-128126961D02*
X181133731Y-128365057D01*
X185181350Y-131222200D02*
X184705159Y-131460295D01*
X184705159Y-131460295D02*
X183752778Y-131460295D01*
X183752778Y-131460295D02*
X183276588Y-131222200D01*
X183276588Y-131222200D02*
X183038492Y-130746009D01*
X183038492Y-130746009D02*
X183038492Y-128841247D01*
X183038492Y-128841247D02*
X183276588Y-128365057D01*
X183276588Y-128365057D02*
X183752778Y-128126961D01*
X183752778Y-128126961D02*
X184705159Y-128126961D01*
X184705159Y-128126961D02*
X185181350Y-128365057D01*
X185181350Y-128365057D02*
X185419445Y-128841247D01*
X185419445Y-128841247D02*
X185419445Y-129317438D01*
X185419445Y-129317438D02*
X183038492Y-129793628D01*
X190895635Y-128126961D02*
X192086111Y-131460295D01*
X192086111Y-131460295D02*
X193276588Y-128126961D01*
X196133731Y-126460295D02*
X196609921Y-126460295D01*
X196609921Y-126460295D02*
X197086112Y-126698390D01*
X197086112Y-126698390D02*
X197324207Y-126936485D01*
X197324207Y-126936485D02*
X197562302Y-127412676D01*
X197562302Y-127412676D02*
X197800397Y-128365057D01*
X197800397Y-128365057D02*
X197800397Y-129555533D01*
X197800397Y-129555533D02*
X197562302Y-130507914D01*
X197562302Y-130507914D02*
X197324207Y-130984104D01*
X197324207Y-130984104D02*
X197086112Y-131222200D01*
X197086112Y-131222200D02*
X196609921Y-131460295D01*
X196609921Y-131460295D02*
X196133731Y-131460295D01*
X196133731Y-131460295D02*
X195657540Y-131222200D01*
X195657540Y-131222200D02*
X195419445Y-130984104D01*
X195419445Y-130984104D02*
X195181350Y-130507914D01*
X195181350Y-130507914D02*
X194943254Y-129555533D01*
X194943254Y-129555533D02*
X194943254Y-128365057D01*
X194943254Y-128365057D02*
X195181350Y-127412676D01*
X195181350Y-127412676D02*
X195419445Y-126936485D01*
X195419445Y-126936485D02*
X195657540Y-126698390D01*
X195657540Y-126698390D02*
X196133731Y-126460295D01*
X199943255Y-130984104D02*
X200181350Y-131222200D01*
X200181350Y-131222200D02*
X199943255Y-131460295D01*
X199943255Y-131460295D02*
X199705159Y-131222200D01*
X199705159Y-131222200D02*
X199943255Y-130984104D01*
X199943255Y-130984104D02*
X199943255Y-131460295D01*
X204943254Y-131460295D02*
X202086111Y-131460295D01*
X203514683Y-131460295D02*
X203514683Y-126460295D01*
X203514683Y-126460295D02*
X203038492Y-127174580D01*
X203038492Y-127174580D02*
X202562302Y-127650771D01*
X202562302Y-127650771D02*
X202086111Y-127888866D01*
X116572819Y-81867333D02*
X117287104Y-81867333D01*
X117287104Y-81867333D02*
X117429961Y-81914952D01*
X117429961Y-81914952D02*
X117525200Y-82010190D01*
X117525200Y-82010190D02*
X117572819Y-82153047D01*
X117572819Y-82153047D02*
X117572819Y-82248285D01*
X116572819Y-81486380D02*
X116572819Y-80819714D01*
X116572819Y-80819714D02*
X117572819Y-81248285D01*
D11*
X192706666Y-51146419D02*
X192706666Y-51860704D01*
X192706666Y-51860704D02*
X192659047Y-52003561D01*
X192659047Y-52003561D02*
X192563809Y-52098800D01*
X192563809Y-52098800D02*
X192420952Y-52146419D01*
X192420952Y-52146419D02*
X192325714Y-52146419D01*
X193611428Y-51146419D02*
X193420952Y-51146419D01*
X193420952Y-51146419D02*
X193325714Y-51194038D01*
X193325714Y-51194038D02*
X193278095Y-51241657D01*
X193278095Y-51241657D02*
X193182857Y-51384514D01*
X193182857Y-51384514D02*
X193135238Y-51574990D01*
X193135238Y-51574990D02*
X193135238Y-51955942D01*
X193135238Y-51955942D02*
X193182857Y-52051180D01*
X193182857Y-52051180D02*
X193230476Y-52098800D01*
X193230476Y-52098800D02*
X193325714Y-52146419D01*
X193325714Y-52146419D02*
X193516190Y-52146419D01*
X193516190Y-52146419D02*
X193611428Y-52098800D01*
X193611428Y-52098800D02*
X193659047Y-52051180D01*
X193659047Y-52051180D02*
X193706666Y-51955942D01*
X193706666Y-51955942D02*
X193706666Y-51717847D01*
X193706666Y-51717847D02*
X193659047Y-51622609D01*
X193659047Y-51622609D02*
X193611428Y-51574990D01*
X193611428Y-51574990D02*
X193516190Y-51527371D01*
X193516190Y-51527371D02*
X193325714Y-51527371D01*
X193325714Y-51527371D02*
X193230476Y-51574990D01*
X193230476Y-51574990D02*
X193182857Y-51622609D01*
X193182857Y-51622609D02*
X193135238Y-51717847D01*
X176196666Y-51146419D02*
X176196666Y-51860704D01*
X176196666Y-51860704D02*
X176149047Y-52003561D01*
X176149047Y-52003561D02*
X176053809Y-52098800D01*
X176053809Y-52098800D02*
X175910952Y-52146419D01*
X175910952Y-52146419D02*
X175815714Y-52146419D01*
X177149047Y-51146419D02*
X176672857Y-51146419D01*
X176672857Y-51146419D02*
X176625238Y-51622609D01*
X176625238Y-51622609D02*
X176672857Y-51574990D01*
X176672857Y-51574990D02*
X176768095Y-51527371D01*
X176768095Y-51527371D02*
X177006190Y-51527371D01*
X177006190Y-51527371D02*
X177101428Y-51574990D01*
X177101428Y-51574990D02*
X177149047Y-51622609D01*
X177149047Y-51622609D02*
X177196666Y-51717847D01*
X177196666Y-51717847D02*
X177196666Y-51955942D01*
X177196666Y-51955942D02*
X177149047Y-52051180D01*
X177149047Y-52051180D02*
X177101428Y-52098800D01*
X177101428Y-52098800D02*
X177006190Y-52146419D01*
X177006190Y-52146419D02*
X176768095Y-52146419D01*
X176768095Y-52146419D02*
X176672857Y-52098800D01*
X176672857Y-52098800D02*
X176625238Y-52051180D01*
X159686666Y-51146419D02*
X159686666Y-51860704D01*
X159686666Y-51860704D02*
X159639047Y-52003561D01*
X159639047Y-52003561D02*
X159543809Y-52098800D01*
X159543809Y-52098800D02*
X159400952Y-52146419D01*
X159400952Y-52146419D02*
X159305714Y-52146419D01*
X160591428Y-51479752D02*
X160591428Y-52146419D01*
X160353333Y-51098800D02*
X160115238Y-51813085D01*
X160115238Y-51813085D02*
X160734285Y-51813085D01*
X143176666Y-51146419D02*
X143176666Y-51860704D01*
X143176666Y-51860704D02*
X143129047Y-52003561D01*
X143129047Y-52003561D02*
X143033809Y-52098800D01*
X143033809Y-52098800D02*
X142890952Y-52146419D01*
X142890952Y-52146419D02*
X142795714Y-52146419D01*
X143557619Y-51146419D02*
X144176666Y-51146419D01*
X144176666Y-51146419D02*
X143843333Y-51527371D01*
X143843333Y-51527371D02*
X143986190Y-51527371D01*
X143986190Y-51527371D02*
X144081428Y-51574990D01*
X144081428Y-51574990D02*
X144129047Y-51622609D01*
X144129047Y-51622609D02*
X144176666Y-51717847D01*
X144176666Y-51717847D02*
X144176666Y-51955942D01*
X144176666Y-51955942D02*
X144129047Y-52051180D01*
X144129047Y-52051180D02*
X144081428Y-52098800D01*
X144081428Y-52098800D02*
X143986190Y-52146419D01*
X143986190Y-52146419D02*
X143700476Y-52146419D01*
X143700476Y-52146419D02*
X143605238Y-52098800D01*
X143605238Y-52098800D02*
X143557619Y-52051180D01*
X126666666Y-51146419D02*
X126666666Y-51860704D01*
X126666666Y-51860704D02*
X126619047Y-52003561D01*
X126619047Y-52003561D02*
X126523809Y-52098800D01*
X126523809Y-52098800D02*
X126380952Y-52146419D01*
X126380952Y-52146419D02*
X126285714Y-52146419D01*
X127095238Y-51241657D02*
X127142857Y-51194038D01*
X127142857Y-51194038D02*
X127238095Y-51146419D01*
X127238095Y-51146419D02*
X127476190Y-51146419D01*
X127476190Y-51146419D02*
X127571428Y-51194038D01*
X127571428Y-51194038D02*
X127619047Y-51241657D01*
X127619047Y-51241657D02*
X127666666Y-51336895D01*
X127666666Y-51336895D02*
X127666666Y-51432133D01*
X127666666Y-51432133D02*
X127619047Y-51574990D01*
X127619047Y-51574990D02*
X127047619Y-52146419D01*
X127047619Y-52146419D02*
X127666666Y-52146419D01*
D10*
X115926666Y-65554819D02*
X115926666Y-66269104D01*
X115926666Y-66269104D02*
X115879047Y-66411961D01*
X115879047Y-66411961D02*
X115783809Y-66507200D01*
X115783809Y-66507200D02*
X115640952Y-66554819D01*
X115640952Y-66554819D02*
X115545714Y-66554819D01*
X116926666Y-66554819D02*
X116355238Y-66554819D01*
X116640952Y-66554819D02*
X116640952Y-65554819D01*
X116640952Y-65554819D02*
X116545714Y-65697676D01*
X116545714Y-65697676D02*
X116450476Y-65792914D01*
X116450476Y-65792914D02*
X116355238Y-65840533D01*
X206854819Y-112948094D02*
X205854819Y-112948094D01*
X206854819Y-112376666D02*
X206283390Y-112805237D01*
X205854819Y-112376666D02*
X206426247Y-112948094D01*
X205854819Y-111471904D02*
X205854819Y-111948094D01*
X205854819Y-111948094D02*
X206331009Y-111995713D01*
X206331009Y-111995713D02*
X206283390Y-111948094D01*
X206283390Y-111948094D02*
X206235771Y-111852856D01*
X206235771Y-111852856D02*
X206235771Y-111614761D01*
X206235771Y-111614761D02*
X206283390Y-111519523D01*
X206283390Y-111519523D02*
X206331009Y-111471904D01*
X206331009Y-111471904D02*
X206426247Y-111424285D01*
X206426247Y-111424285D02*
X206664342Y-111424285D01*
X206664342Y-111424285D02*
X206759580Y-111471904D01*
X206759580Y-111471904D02*
X206807200Y-111519523D01*
X206807200Y-111519523D02*
X206854819Y-111614761D01*
X206854819Y-111614761D02*
X206854819Y-111852856D01*
X206854819Y-111852856D02*
X206807200Y-111948094D01*
X206807200Y-111948094D02*
X206759580Y-111995713D01*
X206854819Y-90588094D02*
X205854819Y-90588094D01*
X206854819Y-90016666D02*
X206283390Y-90445237D01*
X205854819Y-90016666D02*
X206426247Y-90588094D01*
X206188152Y-89159523D02*
X206854819Y-89159523D01*
X205807200Y-89397618D02*
X206521485Y-89635713D01*
X206521485Y-89635713D02*
X206521485Y-89016666D01*
X189074819Y-90588094D02*
X188074819Y-90588094D01*
X189074819Y-90016666D02*
X188503390Y-90445237D01*
X188074819Y-90016666D02*
X188646247Y-90588094D01*
X188074819Y-89683332D02*
X188074819Y-89064285D01*
X188074819Y-89064285D02*
X188455771Y-89397618D01*
X188455771Y-89397618D02*
X188455771Y-89254761D01*
X188455771Y-89254761D02*
X188503390Y-89159523D01*
X188503390Y-89159523D02*
X188551009Y-89111904D01*
X188551009Y-89111904D02*
X188646247Y-89064285D01*
X188646247Y-89064285D02*
X188884342Y-89064285D01*
X188884342Y-89064285D02*
X188979580Y-89111904D01*
X188979580Y-89111904D02*
X189027200Y-89159523D01*
X189027200Y-89159523D02*
X189074819Y-89254761D01*
X189074819Y-89254761D02*
X189074819Y-89540475D01*
X189074819Y-89540475D02*
X189027200Y-89635713D01*
X189027200Y-89635713D02*
X188979580Y-89683332D01*
X171294819Y-90588094D02*
X170294819Y-90588094D01*
X171294819Y-90016666D02*
X170723390Y-90445237D01*
X170294819Y-90016666D02*
X170866247Y-90588094D01*
X170390057Y-89635713D02*
X170342438Y-89588094D01*
X170342438Y-89588094D02*
X170294819Y-89492856D01*
X170294819Y-89492856D02*
X170294819Y-89254761D01*
X170294819Y-89254761D02*
X170342438Y-89159523D01*
X170342438Y-89159523D02*
X170390057Y-89111904D01*
X170390057Y-89111904D02*
X170485295Y-89064285D01*
X170485295Y-89064285D02*
X170580533Y-89064285D01*
X170580533Y-89064285D02*
X170723390Y-89111904D01*
X170723390Y-89111904D02*
X171294819Y-89683332D01*
X171294819Y-89683332D02*
X171294819Y-89064285D01*
X153514819Y-90588094D02*
X152514819Y-90588094D01*
X153514819Y-90016666D02*
X152943390Y-90445237D01*
X152514819Y-90016666D02*
X153086247Y-90588094D01*
X153514819Y-89064285D02*
X153514819Y-89635713D01*
X153514819Y-89349999D02*
X152514819Y-89349999D01*
X152514819Y-89349999D02*
X152657676Y-89445237D01*
X152657676Y-89445237D02*
X152752914Y-89540475D01*
X152752914Y-89540475D02*
X152800533Y-89635713D01*
X185589104Y-114444285D02*
X185589104Y-113968095D01*
X185874819Y-114539523D02*
X184874819Y-114206190D01*
X184874819Y-114206190D02*
X185874819Y-113872857D01*
X185874819Y-113015714D02*
X185874819Y-113587142D01*
X185874819Y-113301428D02*
X184874819Y-113301428D01*
X184874819Y-113301428D02*
X185017676Y-113396666D01*
X185017676Y-113396666D02*
X185112914Y-113491904D01*
X185112914Y-113491904D02*
X185160533Y-113587142D01*
X145325180Y-112468095D02*
X144515657Y-112468095D01*
X144515657Y-112468095D02*
X144420419Y-112515714D01*
X144420419Y-112515714D02*
X144372800Y-112563333D01*
X144372800Y-112563333D02*
X144325180Y-112658571D01*
X144325180Y-112658571D02*
X144325180Y-112849047D01*
X144325180Y-112849047D02*
X144372800Y-112944285D01*
X144372800Y-112944285D02*
X144420419Y-112991904D01*
X144420419Y-112991904D02*
X144515657Y-113039523D01*
X144515657Y-113039523D02*
X145325180Y-113039523D01*
X144372800Y-113468095D02*
X144325180Y-113610952D01*
X144325180Y-113610952D02*
X144325180Y-113849047D01*
X144325180Y-113849047D02*
X144372800Y-113944285D01*
X144372800Y-113944285D02*
X144420419Y-113991904D01*
X144420419Y-113991904D02*
X144515657Y-114039523D01*
X144515657Y-114039523D02*
X144610895Y-114039523D01*
X144610895Y-114039523D02*
X144706133Y-113991904D01*
X144706133Y-113991904D02*
X144753752Y-113944285D01*
X144753752Y-113944285D02*
X144801371Y-113849047D01*
X144801371Y-113849047D02*
X144848990Y-113658571D01*
X144848990Y-113658571D02*
X144896609Y-113563333D01*
X144896609Y-113563333D02*
X144944228Y-113515714D01*
X144944228Y-113515714D02*
X145039466Y-113468095D01*
X145039466Y-113468095D02*
X145134704Y-113468095D01*
X145134704Y-113468095D02*
X145229942Y-113515714D01*
X145229942Y-113515714D02*
X145277561Y-113563333D01*
X145277561Y-113563333D02*
X145325180Y-113658571D01*
X145325180Y-113658571D02*
X145325180Y-113896666D01*
X145325180Y-113896666D02*
X145277561Y-114039523D01*
X144848990Y-114801428D02*
X144801371Y-114944285D01*
X144801371Y-114944285D02*
X144753752Y-114991904D01*
X144753752Y-114991904D02*
X144658514Y-115039523D01*
X144658514Y-115039523D02*
X144515657Y-115039523D01*
X144515657Y-115039523D02*
X144420419Y-114991904D01*
X144420419Y-114991904D02*
X144372800Y-114944285D01*
X144372800Y-114944285D02*
X144325180Y-114849047D01*
X144325180Y-114849047D02*
X144325180Y-114468095D01*
X144325180Y-114468095D02*
X145325180Y-114468095D01*
X145325180Y-114468095D02*
X145325180Y-114801428D01*
X145325180Y-114801428D02*
X145277561Y-114896666D01*
X145277561Y-114896666D02*
X145229942Y-114944285D01*
X145229942Y-114944285D02*
X145134704Y-114991904D01*
X145134704Y-114991904D02*
X145039466Y-114991904D01*
X145039466Y-114991904D02*
X144944228Y-114944285D01*
X144944228Y-114944285D02*
X144896609Y-114896666D01*
X144896609Y-114896666D02*
X144848990Y-114801428D01*
X144848990Y-114801428D02*
X144848990Y-114468095D01*
D12*
%TO.C,J7*%
X118558000Y-78934000D02*
X131378000Y-78934000D01*
X118558000Y-78934000D02*
X118558000Y-81534000D01*
X131378000Y-78934000D02*
X131378000Y-84134000D01*
X118558000Y-82804000D02*
X118558000Y-84134000D01*
X121158000Y-81534000D02*
X121158000Y-84134000D01*
X118558000Y-81534000D02*
X121158000Y-81534000D01*
X118558000Y-84134000D02*
X119888000Y-84134000D01*
X121158000Y-84134000D02*
X131378000Y-84134000D01*
D11*
%TO.C,J6*%
X189611000Y-50673000D02*
X204089000Y-50673000D01*
X204089000Y-50673000D02*
X204089000Y-76073000D01*
X204089000Y-76073000D02*
X189611000Y-76073000D01*
X189611000Y-76073000D02*
X189611000Y-50673000D01*
X190627000Y-50673000D02*
X203073000Y-50673000D01*
X203073000Y-50673000D02*
X203073000Y-59563000D01*
X203073000Y-59563000D02*
X190627000Y-59563000D01*
X190627000Y-59563000D02*
X190627000Y-50673000D01*
%TO.C,J5*%
X173101000Y-50673000D02*
X187579000Y-50673000D01*
X187579000Y-50673000D02*
X187579000Y-76073000D01*
X187579000Y-76073000D02*
X173101000Y-76073000D01*
X173101000Y-76073000D02*
X173101000Y-50673000D01*
X174117000Y-50673000D02*
X186563000Y-50673000D01*
X186563000Y-50673000D02*
X186563000Y-59563000D01*
X186563000Y-59563000D02*
X174117000Y-59563000D01*
X174117000Y-59563000D02*
X174117000Y-50673000D01*
%TO.C,J4*%
X156591000Y-50673000D02*
X171069000Y-50673000D01*
X171069000Y-50673000D02*
X171069000Y-76073000D01*
X171069000Y-76073000D02*
X156591000Y-76073000D01*
X156591000Y-76073000D02*
X156591000Y-50673000D01*
X157607000Y-50673000D02*
X170053000Y-50673000D01*
X170053000Y-50673000D02*
X170053000Y-59563000D01*
X170053000Y-59563000D02*
X157607000Y-59563000D01*
X157607000Y-59563000D02*
X157607000Y-50673000D01*
%TO.C,J3*%
X140081000Y-50673000D02*
X154559000Y-50673000D01*
X154559000Y-50673000D02*
X154559000Y-76073000D01*
X154559000Y-76073000D02*
X140081000Y-76073000D01*
X140081000Y-76073000D02*
X140081000Y-50673000D01*
X141097000Y-50673000D02*
X153543000Y-50673000D01*
X153543000Y-50673000D02*
X153543000Y-59563000D01*
X153543000Y-59563000D02*
X141097000Y-59563000D01*
X141097000Y-59563000D02*
X141097000Y-50673000D01*
%TO.C,J2*%
X123571000Y-50673000D02*
X138049000Y-50673000D01*
X138049000Y-50673000D02*
X138049000Y-76073000D01*
X138049000Y-76073000D02*
X123571000Y-76073000D01*
X123571000Y-76073000D02*
X123571000Y-50673000D01*
X124587000Y-50673000D02*
X137033000Y-50673000D01*
X137033000Y-50673000D02*
X137033000Y-59563000D01*
X137033000Y-59563000D02*
X124587000Y-59563000D01*
X124587000Y-59563000D02*
X124587000Y-50673000D01*
D12*
%TO.C,J1*%
X115960000Y-64950000D02*
X112960000Y-64950000D01*
X116360000Y-50250000D02*
X116360000Y-53800000D01*
X107560000Y-64950000D02*
X107560000Y-62950000D01*
X107160000Y-53800000D02*
X107160000Y-50250000D01*
X109160000Y-64950000D02*
X107560000Y-64950000D01*
X112950000Y-66850000D02*
X112950000Y-68590000D01*
X107560000Y-62950000D02*
X107160000Y-62950000D01*
X115960000Y-62950000D02*
X115960000Y-64950000D01*
X112950000Y-68590000D02*
X111210000Y-68590000D01*
X116360000Y-62950000D02*
X115960000Y-62950000D01*
X116360000Y-60500000D02*
X116360000Y-62950000D01*
X107160000Y-50250000D02*
X116360000Y-50250000D01*
X107160000Y-62950000D02*
X107160000Y-60500000D01*
%TO.C,K5*%
X195700000Y-116810000D02*
X195700000Y-111810000D01*
X197200000Y-109310000D02*
X194500000Y-104810000D01*
X191200000Y-114310000D02*
X195700000Y-114310000D01*
X198700000Y-114310000D02*
X203200000Y-114310000D01*
X197200000Y-110810000D02*
X197200000Y-109310000D01*
X195700000Y-111810000D02*
X198700000Y-111810000D01*
X189500000Y-102610000D02*
X204900000Y-102610000D01*
X197200000Y-117710000D02*
X200900000Y-117710000D01*
X200900000Y-110810000D02*
X200900000Y-117710000D01*
X197200000Y-117710000D02*
X197200000Y-118610000D01*
X191200000Y-114310000D02*
X191200000Y-116610000D01*
X198700000Y-111810000D02*
X198700000Y-116810000D01*
X204900000Y-102610000D02*
X204900000Y-121810000D01*
X198700000Y-111810000D02*
X195700000Y-116810000D01*
X197200000Y-110810000D02*
X200900000Y-110810000D01*
X189500000Y-121810000D02*
X189500000Y-102610000D01*
X198400000Y-121810000D02*
X204900000Y-121810000D01*
X201500000Y-106110000D02*
X199200000Y-106110000D01*
X192900000Y-106110000D02*
X195200000Y-106110000D01*
X203200000Y-116610000D02*
X203200000Y-114310000D01*
X198700000Y-116810000D02*
X195700000Y-116810000D01*
X189500000Y-121810000D02*
X196000000Y-121810000D01*
%TO.C,K4*%
X195700000Y-94450000D02*
X195700000Y-89450000D01*
X197200000Y-86950000D02*
X194500000Y-82450000D01*
X191200000Y-91950000D02*
X195700000Y-91950000D01*
X198700000Y-91950000D02*
X203200000Y-91950000D01*
X197200000Y-88450000D02*
X197200000Y-86950000D01*
X195700000Y-89450000D02*
X198700000Y-89450000D01*
X189500000Y-80250000D02*
X204900000Y-80250000D01*
X197200000Y-95350000D02*
X200900000Y-95350000D01*
X200900000Y-88450000D02*
X200900000Y-95350000D01*
X197200000Y-95350000D02*
X197200000Y-96250000D01*
X191200000Y-91950000D02*
X191200000Y-94250000D01*
X198700000Y-89450000D02*
X198700000Y-94450000D01*
X204900000Y-80250000D02*
X204900000Y-99450000D01*
X198700000Y-89450000D02*
X195700000Y-94450000D01*
X197200000Y-88450000D02*
X200900000Y-88450000D01*
X189500000Y-99450000D02*
X189500000Y-80250000D01*
X198400000Y-99450000D02*
X204900000Y-99450000D01*
X201500000Y-83750000D02*
X199200000Y-83750000D01*
X192900000Y-83750000D02*
X195200000Y-83750000D01*
X203200000Y-94250000D02*
X203200000Y-91950000D01*
X198700000Y-94450000D02*
X195700000Y-94450000D01*
X189500000Y-99450000D02*
X196000000Y-99450000D01*
%TO.C,K3*%
X177920000Y-94450000D02*
X177920000Y-89450000D01*
X179420000Y-86950000D02*
X176720000Y-82450000D01*
X173420000Y-91950000D02*
X177920000Y-91950000D01*
X180920000Y-91950000D02*
X185420000Y-91950000D01*
X179420000Y-88450000D02*
X179420000Y-86950000D01*
X177920000Y-89450000D02*
X180920000Y-89450000D01*
X171720000Y-80250000D02*
X187120000Y-80250000D01*
X179420000Y-95350000D02*
X183120000Y-95350000D01*
X183120000Y-88450000D02*
X183120000Y-95350000D01*
X179420000Y-95350000D02*
X179420000Y-96250000D01*
X173420000Y-91950000D02*
X173420000Y-94250000D01*
X180920000Y-89450000D02*
X180920000Y-94450000D01*
X187120000Y-80250000D02*
X187120000Y-99450000D01*
X180920000Y-89450000D02*
X177920000Y-94450000D01*
X179420000Y-88450000D02*
X183120000Y-88450000D01*
X171720000Y-99450000D02*
X171720000Y-80250000D01*
X180620000Y-99450000D02*
X187120000Y-99450000D01*
X183720000Y-83750000D02*
X181420000Y-83750000D01*
X175120000Y-83750000D02*
X177420000Y-83750000D01*
X185420000Y-94250000D02*
X185420000Y-91950000D01*
X180920000Y-94450000D02*
X177920000Y-94450000D01*
X171720000Y-99450000D02*
X178220000Y-99450000D01*
%TO.C,K2*%
X160140000Y-94450000D02*
X160140000Y-89450000D01*
X161640000Y-86950000D02*
X158940000Y-82450000D01*
X155640000Y-91950000D02*
X160140000Y-91950000D01*
X163140000Y-91950000D02*
X167640000Y-91950000D01*
X161640000Y-88450000D02*
X161640000Y-86950000D01*
X160140000Y-89450000D02*
X163140000Y-89450000D01*
X153940000Y-80250000D02*
X169340000Y-80250000D01*
X161640000Y-95350000D02*
X165340000Y-95350000D01*
X165340000Y-88450000D02*
X165340000Y-95350000D01*
X161640000Y-95350000D02*
X161640000Y-96250000D01*
X155640000Y-91950000D02*
X155640000Y-94250000D01*
X163140000Y-89450000D02*
X163140000Y-94450000D01*
X169340000Y-80250000D02*
X169340000Y-99450000D01*
X163140000Y-89450000D02*
X160140000Y-94450000D01*
X161640000Y-88450000D02*
X165340000Y-88450000D01*
X153940000Y-99450000D02*
X153940000Y-80250000D01*
X162840000Y-99450000D02*
X169340000Y-99450000D01*
X165940000Y-83750000D02*
X163640000Y-83750000D01*
X157340000Y-83750000D02*
X159640000Y-83750000D01*
X167640000Y-94250000D02*
X167640000Y-91950000D01*
X163140000Y-94450000D02*
X160140000Y-94450000D01*
X153940000Y-99450000D02*
X160440000Y-99450000D01*
%TO.C,K1*%
X142360000Y-94450000D02*
X142360000Y-89450000D01*
X143860000Y-86950000D02*
X141160000Y-82450000D01*
X137860000Y-91950000D02*
X142360000Y-91950000D01*
X145360000Y-91950000D02*
X149860000Y-91950000D01*
X143860000Y-88450000D02*
X143860000Y-86950000D01*
X142360000Y-89450000D02*
X145360000Y-89450000D01*
X136160000Y-80250000D02*
X151560000Y-80250000D01*
X143860000Y-95350000D02*
X147560000Y-95350000D01*
X147560000Y-88450000D02*
X147560000Y-95350000D01*
X143860000Y-95350000D02*
X143860000Y-96250000D01*
X137860000Y-91950000D02*
X137860000Y-94250000D01*
X145360000Y-89450000D02*
X145360000Y-94450000D01*
X151560000Y-80250000D02*
X151560000Y-99450000D01*
X145360000Y-89450000D02*
X142360000Y-94450000D01*
X143860000Y-88450000D02*
X147560000Y-88450000D01*
X136160000Y-99450000D02*
X136160000Y-80250000D01*
X145060000Y-99450000D02*
X151560000Y-99450000D01*
X148160000Y-83750000D02*
X145860000Y-83750000D01*
X139560000Y-83750000D02*
X141860000Y-83750000D01*
X149860000Y-94250000D02*
X149860000Y-91950000D01*
X145360000Y-94450000D02*
X142360000Y-94450000D01*
X136160000Y-99450000D02*
X142660000Y-99450000D01*
%TO.C,A1*%
X181610000Y-107380000D02*
X181610000Y-104710000D01*
X138300000Y-117670000D02*
X138300000Y-109790000D01*
X140840000Y-122750000D02*
X184280000Y-122750000D01*
X138300000Y-109790000D02*
X148720000Y-109790000D01*
X148720000Y-117670000D02*
X138300000Y-117670000D01*
X140840000Y-122750000D02*
X140840000Y-117670000D01*
X179070000Y-104710000D02*
X140840000Y-104710000D01*
X143510000Y-107380000D02*
X143510000Y-104710000D01*
X181610000Y-120080000D02*
X143510000Y-120080000D01*
X179070000Y-107380000D02*
X181610000Y-107380000D01*
X143510000Y-120080000D02*
X143510000Y-122750000D01*
X181610000Y-120080000D02*
X181610000Y-122750000D01*
X179070000Y-107380000D02*
X179070000Y-104710000D01*
X184280000Y-122750000D02*
X184280000Y-104710000D01*
X140840000Y-104710000D02*
X140840000Y-109790000D01*
X184280000Y-104710000D02*
X181610000Y-104710000D01*
X148720000Y-109790000D02*
X148720000Y-117670000D01*
X179070000Y-107380000D02*
X143510000Y-107380000D01*
%TD*%
M02*
